<svg xmlns="http://www.w3.org/2000/svg" viewBox="0 0 473.94 473.94"><circle cx="236.97" cy="236.97" r="236.97" fill="#27ade4"/><path d="M80.859 194.744l-7.397-18.264-7.353 18.264m177.618-7.274c-1.485.917-3.24.947-5.343.947h-13.126v-10.174h13.302c1.882 0 3.847.079 5.122.819 1.399.674 2.264 2.095 2.264 4.056.004 1.998-.823 3.611-2.219 4.352m93.608 7.274l-7.472-18.264-7.431 18.264h14.903zm-174.494 19.767h-11.076l-.041-35.883-15.663 35.883h-9.485l-15.7-35.913v35.913H88.904l-4.15-10.219H62.267l-4.195 10.219h-11.73l19.341-45.814h16.052l18.368 43.374v-43.374h17.627l14.136 31.079 12.984-31.079h17.99v45.814h.001zm44.134 0H170.89v-45.814h36.086v9.545h-25.279v8.258h24.673v9.392h-24.673v9.137h25.279l-.001 9.482zm50.877-33.47c0 7.296-4.812 11.079-7.614 12.206 2.365.917 4.385 2.526 5.343 3.865 1.527 2.271 1.792 4.311 1.792 8.396v9.003h-10.896l-.041-5.777c0-2.758.258-6.728-1.706-8.928-1.579-1.609-3.981-1.961-7.873-1.961h-11.599v16.666h-10.802v-45.814h24.849c5.523 0 9.59.146 13.077 2.193 3.42 2.054 5.47 5.036 5.47 10.151m17.287 33.47h-11.02v-45.81h11.02v45.81zm127.86 0h-15.311l-20.471-34.387v34.387h-22.002l-4.198-10.219h-22.439l-4.082 10.219h-12.64c-5.246 0-11.899-1.179-15.663-5.07-3.798-3.888-5.77-9.156-5.77-17.489 0-6.788 1.175-13.01 5.826-17.908 3.491-3.659 8.961-5.347 16.404-5.347h10.454v9.815H302.87c-3.94 0-6.163.595-8.31 2.717-1.841 1.934-3.106 5.579-3.106 10.38 0 4.905.965 8.445 2.975 10.754 1.658 1.815 4.681 2.365 7.525 2.365h4.849l15.225-36.026h16.187l18.286 43.333v-43.333h16.449l18.986 31.902v-31.902H403l-.001 45.809zM46.218 223.51h18.454l4.161-10.178h9.313l4.15 10.178h36.314v-7.779l3.244 7.809h18.847l3.24-7.925v7.895h90.244l-.045-16.707h1.747c1.224.045 1.579.161 1.579 2.208v14.499h46.675v-3.888c3.768 2.047 9.624 3.888 17.332 3.888h19.633l4.202-10.178h9.317l4.108 10.178h37.837v-9.669l5.732 9.669h30.323v-63.894h-30.013v7.547l-4.198-7.547h-30.795v7.547l-3.854-7.547H302.17c-6.956 0-13.077.988-18.024 3.731v-3.731h-28.703v3.731c-3.143-2.829-7.427-3.731-12.198-3.731H138.382l-7.035 16.501-7.225-16.501H91.089v7.547l-3.63-7.547H59.296l-13.085 30.379L31.21 223.51h15.008z" fill="#2d78bc"/><path d="M80.859 198.485l-7.397-18.264-7.353 18.264m177.618-7.274c-1.485.917-3.24.947-5.343.947h-13.126v-10.174h13.302c1.882 0 3.847.079 5.122.819 1.399.674 2.264 2.095 2.264 4.056.004 1.999-.823 3.612-2.219 4.352m93.608 7.274l-7.472-18.264-7.431 18.264h14.903zm-174.494 19.768h-11.076l-.041-35.883-15.663 35.883h-9.485l-15.7-35.913v35.913H88.904l-4.15-10.219H62.267l-4.195 10.219h-11.73l19.341-45.814h16.052l18.368 43.374v-43.374h17.627l14.136 31.079 12.984-31.079h17.99v45.814h.001zm44.134 0H170.89v-45.814h36.086v9.545h-25.279v8.258h24.673v9.392h-24.673v9.137h25.279l-.001 9.482zm50.877-33.47c0 7.296-4.812 11.079-7.614 12.206 2.365.917 4.385 2.526 5.343 3.865 1.527 2.271 1.792 4.311 1.792 8.396v9.003h-10.896l-.041-5.777c0-2.758.258-6.728-1.706-8.928-1.579-1.609-3.981-1.961-7.873-1.961h-11.599v16.666h-10.802v-45.814h24.849c5.523 0 9.59.146 13.077 2.193 3.42 2.054 5.47 5.036 5.47 10.151m17.287 33.47h-11.02v-45.81h11.02v45.81zm127.86 0h-15.311l-20.471-34.387v34.387h-22.002l-4.198-10.219h-22.439l-4.082 10.219h-12.64c-5.246 0-11.899-1.179-15.663-5.07-3.798-3.888-5.77-9.156-5.77-17.489 0-6.788 1.175-13.01 5.826-17.908 3.491-3.659 8.961-5.347 16.404-5.347h10.454v9.815H302.87c-3.94 0-6.163.595-8.31 2.717-1.841 1.934-3.106 5.579-3.106 10.38 0 4.905.965 8.445 2.975 10.754 1.658 1.815 4.681 2.365 7.525 2.365h4.849l15.225-36.026h16.187l18.286 43.333v-43.333h16.449l18.986 31.902v-31.902H403l-.001 45.809zm-356.781 8.999h18.454l4.161-10.178h9.313l4.15 10.178h36.314v-7.779l3.244 7.809h18.847l3.24-7.925v7.895h90.244l-.045-16.707h1.747c1.224.045 1.579.161 1.579 2.208v14.499h46.675v-3.888c3.768 2.047 9.624 3.888 17.332 3.888h19.633l4.202-10.178h9.317l4.108 10.178h37.837v-9.669l5.732 9.669h30.323v-63.894h-30.013v7.547l-4.198-7.547h-30.795v7.547l-3.854-7.547H302.17c-6.956 0-13.077.988-18.024 3.731v-3.731h-28.703v3.731c-3.143-2.829-7.427-3.731-12.198-3.731H138.382l-7.035 16.501-7.225-16.501H91.089v7.547l-3.63-7.547H59.296l-13.085 30.379-15.001 33.515h15.008z" fill="#fff"/><path d="M436.858 266.709v-29.313h-27.06c-6.035 0-10.425 1.463-13.526 3.734v-3.734H366.69c-4.73 0-10.286 1.182-12.905 3.734v-3.734H300.95v3.734c-4.202-3.068-11.3-3.734-14.57-3.734h-34.847v3.734c-3.326-3.259-10.72-3.734-15.229-3.734h-38.997l-8.924 9.777-8.359-9.777h-58.255v63.887h57.155l9.197-9.931 8.658 9.931 35.236.037v-15.034h3.461c4.673.075 10.185-.116 15.049-2.245v17.238h29.062v-16.655h1.407c1.789 0 1.961.079 1.961 1.886v14.769h88.276c5.609 0 11.469-1.456 14.716-4.086v4.086h27.996c5.83 0 11.521-.827 15.85-2.945v-.067a23.013 23.013 0 0010.529-19.382 22.917 22.917 0 00-3.464-12.176zm-200.899 10.222h-13.485v15.36h-21.003l-13.309-15.162-13.826 15.162h-42.809V246.5h43.468l13.294 15.008 13.747-15.008h34.533c8.572 0 18.207 2.406 18.207 15.083 0 12.725-9.373 15.348-18.817 15.348zm65.036-2.076c1.527 2.234 1.747 4.318 1.792 8.359v9.078h-10.844v-5.729c0-2.754.258-6.832-1.751-8.965-1.583-1.639-3.981-2.036-7.929-2.036h-11.551v16.729h-10.855V246.5h24.95c5.47 0 9.452.243 13.003 2.163 3.413 2.084 5.557 4.939 5.557 10.166 0 7.308-4.816 11.042-7.659 12.183 2.394.898 4.366 2.507 5.287 3.843zm44.426-18.881h-25.309v8.325h24.692v9.343h-24.692v9.111l25.309.045v9.5h-36.067V246.5h36.067v9.474zm27.52 36.321h-21.047v-9.822h20.969c2.05 0 3.502-.269 4.415-1.137a4.091 4.091 0 001.276-2.978c0-1.336-.576-2.398-1.321-3.035-.831-.703-1.964-1.014-3.847-1.014-10.107-.344-22.765.314-22.765-14.178 0-6.642 4.123-13.631 15.45-13.631h21.669v9.747h-19.824c-1.964 0-3.244.075-4.333.823-1.179.745-1.624 1.841-1.624 3.3 0 1.725 1.01 2.9 2.365 3.413 1.145.397 2.365.513 4.206.513l5.822.168c5.863.138 9.893 1.171 12.34 3.678 2.107 2.2 3.229 4.984 3.229 9.695-.003 9.856-6.076 14.458-16.98 14.458zm55.622-4.423c-2.847 2.915-7.439 4.423-13.429 4.423h-20.872v-9.822h20.785c2.065 0 3.51-.269 4.378-1.137a4.034 4.034 0 001.276-2.978c0-1.336-.524-2.398-1.321-3.035-.782-.703-1.923-1.014-3.809-1.014-10.148-.344-22.806.314-22.806-14.178 0-6.642 4.161-13.631 15.506-13.631h21.115v9.744h-19.281c-1.961 0-3.27.079-4.374.827-1.141.741-1.579 1.841-1.579 3.293 0 1.732.962 2.9 2.365 3.413 1.145.404 2.365.52 4.161.52l5.856.161c5.912.146 9.86 1.175 12.258 3.686.438.348.703.741 1.01 1.13a38.294 38.294 0 00-.37-.475 15.02 15.02 0 012.997 9.01 15.027 15.027 0 01-3.866 10.063zm-259.177-31.898l11.824 13.343-12.348 13.433h-26.574v-9.111h23.727v-9.343h-23.727v-8.322h27.098zm25.736 13.5l16.595-18.054v36.71l-16.595-18.656zm48.059-7.888c0 3.97-2.586 6.047-6.739 6.047h-13.964v-11.659h14.095c3.895 0 6.608 1.605 6.608 5.612zm48.231-.666c0 1.957-.838 3.536-2.241 4.393-1.444.868-3.233.943-5.332.943h-13.134v-10.282h13.306c1.927 0 3.854.041 5.16.827 1.407.737 2.241 2.155 2.241 4.119z" fill="#2d78bc"/><path d="M436.858 270.451v-29.313h-27.06c-6.035 0-10.425 1.463-13.526 3.734v-3.734H366.69c-4.73 0-10.286 1.182-12.905 3.734v-3.734H300.95v3.734c-4.202-3.068-11.3-3.734-14.57-3.734h-34.847v3.734c-3.326-3.259-10.72-3.734-15.229-3.734h-38.997l-8.924 9.777-8.359-9.777h-58.255v63.887h57.155l9.197-9.931 8.658 9.931 35.236.037v-15.034h3.461c4.673.075 10.185-.116 15.049-2.245v17.238h29.062v-16.655h1.407c1.789 0 1.961.079 1.961 1.886v14.769h88.276c5.609 0 11.469-1.456 14.716-4.086v4.086h27.996c5.83 0 11.521-.827 15.85-2.945v-.067a23.013 23.013 0 0010.529-19.382 22.917 22.917 0 00-3.464-12.176zm-200.899 10.222h-13.485v15.36h-21.003l-13.309-15.162-13.826 15.162h-42.809v-45.792h43.468l13.294 15.008 13.747-15.008h34.533c8.572 0 18.207 2.406 18.207 15.083 0 12.726-9.373 15.349-18.817 15.349zm65.036-2.077c1.527 2.234 1.747 4.318 1.792 8.359v9.078h-10.844v-5.729c0-2.754.258-6.832-1.751-8.965-1.583-1.639-3.981-2.036-7.929-2.036h-11.551v16.729h-10.855V250.24h24.95c5.47 0 9.452.243 13.003 2.163 3.413 2.084 5.557 4.939 5.557 10.166 0 7.308-4.816 11.042-7.659 12.183 2.394.9 4.366 2.509 5.287 3.844zm44.426-18.88h-25.309v8.325h24.692v9.343h-24.692v9.111l25.309.045v9.5h-36.067v-45.799h36.067v9.475zm27.52 36.321h-21.047v-9.822h20.969c2.05 0 3.502-.269 4.415-1.137a4.091 4.091 0 001.276-2.978c0-1.336-.576-2.398-1.321-3.035-.831-.703-1.964-1.014-3.847-1.014-10.107-.344-22.765.314-22.765-14.178 0-6.642 4.123-13.631 15.45-13.631h21.669v9.747h-19.824c-1.964 0-3.244.075-4.333.823-1.179.745-1.624 1.841-1.624 3.3 0 1.725 1.01 2.9 2.365 3.413 1.145.397 2.365.513 4.206.513l5.822.168c5.863.138 9.893 1.171 12.34 3.678 2.107 2.2 3.229 4.984 3.229 9.695-.003 9.855-6.076 14.458-16.98 14.458zm55.622-4.423c-2.847 2.915-7.439 4.423-13.429 4.423h-20.872v-9.822h20.785c2.065 0 3.51-.269 4.378-1.137a4.034 4.034 0 001.276-2.978c0-1.336-.524-2.398-1.321-3.035-.782-.703-1.923-1.014-3.809-1.014-10.148-.344-22.806.314-22.806-14.178 0-6.642 4.161-13.631 15.506-13.631h21.115v9.744h-19.281c-1.961 0-3.27.079-4.374.827-1.141.741-1.579 1.841-1.579 3.293 0 1.732.962 2.9 2.365 3.413 1.145.404 2.365.52 4.161.52l5.856.161c5.912.146 9.86 1.175 12.258 3.686.438.348.703.741 1.01 1.13a38.294 38.294 0 00-.37-.475 15.02 15.02 0 012.997 9.01 15.027 15.027 0 01-3.866 10.063zm-259.177-31.898l11.824 13.343-12.348 13.433h-26.574v-9.111h23.727v-9.343h-23.727v-8.322h27.098zm25.736 13.5l16.595-18.054v36.71l-16.595-18.656zm48.059-7.888c0 3.97-2.586 6.047-6.739 6.047h-13.964v-11.659h14.095c3.895 0 6.608 1.605 6.608 5.612zm48.231-.666c0 1.957-.838 3.536-2.241 4.393-1.444.868-3.233.943-5.332.943h-13.134v-10.282h13.306c1.927 0 3.854.041 5.16.827 1.407.737 2.241 2.155 2.241 4.119z" fill="#fff"/></svg>