<svg height="512pt" viewBox="0 -79 512 512" width="512pt" xmlns="http://www.w3.org/2000/svg"><path d="m397.242188 353.105469h97.101562c9.75 0 17.65625-7.90625 17.65625-17.65625v-317.792969c0-9.753906-7.90625-17.65625-17.65625-17.65625h-476.6875c-9.753906 0-17.65625 7.90625-17.65625 17.65625v317.792969c0 9.75 7.902344 17.652343 17.65625 17.652343h379.585938zm0 0" fill="#c03a2b"/><path d="m79.449219 0v114.757812h-79.449219v123.585938h79.449219v114.761719h123.585937v-114.761719h308.964844v-123.585938h-308.964844v-114.757812zm0 0" fill="#fff"/><path d="m114.757812 353.105469v-150.070313h-114.757812v-52.964844h114.757812v-150.070312h52.964844v150.070312h344.277344v52.964844h-344.277344v150.070313zm0 0" fill="#285680"/></svg>