<svg height="512pt" viewBox="0 -79 512 512" width="512pt" xmlns="http://www.w3.org/2000/svg"><path d="M397.242 353.105h97.102c9.75 0 17.656-7.906 17.656-17.656V17.656C512 7.902 504.094 0 494.344 0H17.656C7.902 0 0 7.906 0 17.656V335.45c0 9.75 7.902 17.653 17.656 17.653h379.586zm0 0" fill="#c03a2b"/><path d="M79.45 0v114.758H0v123.586h79.45v114.761h123.585V238.344H512V114.758H203.035V0zm0 0" fill="#fff"/><path d="M114.758 353.105v-150.07H0V150.07h114.758V0h52.965v150.07H512v52.965H167.723v150.07zm0 0" fill="#285680"/></svg>