<svg width="66" height="66" fill="none" xmlns="http://www.w3.org/2000/svg"><g clip-path="url(#clip0)" fill="#fff"><path d="M40.465 26.87l-9.917 9.366-4.759-4.897a1.371 1.371 0 10-1.967 1.912l5.708 5.86c.53.533 1.387.551 1.94.04l10.907-10.287a1.37 1.37 0 00.055-1.94 1.404 1.404 0 00-1.967-.055z"/><path d="M33.106 12.455c-11.333 0-20.548 9.215-20.548 20.548 0 11.334 9.215 20.55 20.548 20.55 11.334 0 20.55-9.216 20.55-20.55 0-11.333-9.216-20.548-20.55-20.548zm0 38.347c-9.82 0-17.797-7.992-17.797-17.799 0-9.807 7.977-17.798 17.797-17.798 9.83 0 17.799 7.969 17.799 17.798 0 9.83-7.969 17.799-17.799 17.799z"/><path d="M61.385 25.439l.454-8.157a1.372 1.372 0 00-.756-1.307l-7.262-3.672-3.673-7.262a1.396 1.396 0 00-1.306-.757l-8.17.44-6.81-4.497a1.375 1.375 0 00-1.512 0L25.54 4.725l-8.155-.454a1.37 1.37 0 00-1.307.756l-3.673 7.263-7.262 3.672c-.486.25-.782.76-.756 1.307l.453 8.156-4.497 6.808a1.375 1.375 0 000 1.513l4.484 6.822-.454 8.157a1.371 1.371 0 00.756 1.306l7.263 3.673 3.672 7.262c.25.487.76.782 1.307.756l8.156-.454 6.809 4.498a1.34 1.34 0 001.512 0l6.809-4.498 8.156.454a1.373 1.373 0 001.307-.756l3.672-7.262 7.263-3.673c.486-.25.782-.76.756-1.306l-.454-8.157 4.498-6.808a1.375 1.375 0 000-1.513l-4.47-6.808zM58.827 39.44a1.291 1.291 0 00-.22.839l.426 7.715-6.863 3.467a1.357 1.357 0 00-.605.605L48.1 58.93l-7.716-.426a1.503 1.503 0 00-.84.22l-6.437 4.25-6.436-4.25a1.36 1.36 0 00-.757-.234h-.069l-7.716.427-3.466-6.864a1.355 1.355 0 00-.605-.605L7.18 47.995l.426-7.715a1.503 1.503 0 00-.22-.84l-4.25-6.437 4.25-6.437c.168-.245.246-.542.22-.838L7.18 18.01l6.863-3.466c.262-.13.474-.343.605-.605l3.466-6.864 7.717.427c.294.01.586-.066.839-.22l6.436-4.25 6.438 4.25c.246.168.542.246.839.22l7.716-.427 3.466 6.864c.131.262.343.474.605.605l6.863 3.466-.426 7.716c-.01.296.066.587.22.84l4.25 6.436-4.25 6.438z"/></g><defs><clipPath id="clip0"><path fill="#fff" d="M0 0h66v66H0z"/></clipPath></defs></svg>