<svg width="110" height="18" fill="none" xmlns="http://www.w3.org/2000/svg"><g clip-path="url(#clip0)"><path d="M17.953 6.905a.955.955 0 00-.823-.658l-5.196-.472L9.88.967a.957.957 0 00-1.76 0L6.066 5.776.87 6.247A.957.957 0 00.327 7.92l3.927 3.444-1.158 5.101A.956.956 0 004.519 17.5L9 14.82l4.48 2.679a.957.957 0 001.424-1.034l-1.159-5.101 3.928-3.443a.957.957 0 00.28-1.017z" fill="#FFC107"/></g><g clip-path="url(#clip1)"><path d="M40.953 6.905a.955.955 0 00-.824-.658l-5.195-.472L32.88.967a.957.957 0 00-1.76 0l-2.054 4.808-5.196.472a.957.957 0 00-.543 1.674l3.927 3.444-1.158 5.101a.956.956 0 001.423 1.034L32 14.82l4.48 2.679a.957.957 0 001.424-1.034l-1.158-5.101 3.926-3.443a.957.957 0 00.281-1.017z" fill="#FFC107"/></g><g clip-path="url(#clip2)"><path d="M63.953 6.905a.955.955 0 00-.824-.658l-5.195-.472L55.88.967a.957.957 0 00-1.76 0l-2.054 4.808-5.196.472a.957.957 0 00-.543 1.674l3.927 3.444-1.158 5.101a.956.956 0 001.423 1.034L55 14.82l4.48 2.679a.957.957 0 001.424-1.034l-1.158-5.101 3.926-3.443a.957.957 0 00.281-1.017z" fill="#FFC107"/></g><g clip-path="url(#clip3)"><path d="M86.953 6.905a.955.955 0 00-.824-.658l-5.195-.472L78.88.967a.957.957 0 00-1.76 0l-2.054 4.808-5.196.472a.957.957 0 00-.543 1.674l3.927 3.444-1.158 5.101a.956.956 0 001.423 1.034L78 14.82l4.48 2.679a.957.957 0 001.424-1.034l-1.159-5.101 3.927-3.443a.957.957 0 00.281-1.017z" fill="#FFC107"/></g><g clip-path="url(#clip4)"><path d="M109.953 6.905a.955.955 0 00-.823-.658l-5.196-.472L101.88.967a.958.958 0 00-1.76 0l-2.054 4.808-5.196.472a.957.957 0 00-.543 1.674l3.927 3.444-1.158 5.101a.956.956 0 001.423 1.034L101 14.82l4.48 2.679a.955.955 0 001.423-1.034l-1.158-5.101 3.928-3.443a.957.957 0 00.28-1.017z" fill="#FFC107"/></g><defs><clipPath id="clip0"><path fill="#fff" d="M0 0h18v18H0z"/></clipPath><clipPath id="clip1"><path fill="#fff" transform="translate(23)" d="M0 0h18v18H0z"/></clipPath><clipPath id="clip2"><path fill="#fff" transform="translate(46)" d="M0 0h18v18H0z"/></clipPath><clipPath id="clip3"><path fill="#fff" transform="translate(69)" d="M0 0h18v18H0z"/></clipPath><clipPath id="clip4"><path fill="#fff" transform="translate(92)" d="M0 0h18v18H0z"/></clipPath></defs></svg>