<svg xmlns="http://www.w3.org/2000/svg" width="512" height="512"><path d="M352 0H64C28.704 0 0 28.704 0 64v192c0 35.296 28.704 64 64 64v80c0 6.24 3.648 11.936 9.312 14.528A15.875 15.875 0 0080 416c3.744 0 7.456-1.312 10.4-3.872L197.92 320H352c35.296 0 64-28.704 64-64V64c0-35.296-28.704-64-64-64zm32 256c0 17.632-14.368 32-32 32H192c-3.808 0-7.52 1.344-10.4 3.872L96 365.216V304c0-8.832-7.168-16-16-16H64c-17.632 0-32-14.368-32-32V64c0-17.632 14.368-32 32-32h288c17.632 0 32 14.368 32 32v192z" fill="#fff" data-original="#000000" xmlns="http://www.w3.org/2000/svg"/><path d="M469.216 99.744a15.993 15.993 0 00-20.352 9.92c-2.88 8.352 1.536 17.44 9.92 20.352C471.456 134.368 480 146.432 480 160v192c0 17.632-14.368 32-32 32h-16c-8.832 0-16 7.168-16 16v61.216l-85.6-73.344c-2.88-2.528-6.592-3.872-10.4-3.872H178.24c-8.832 0-16 7.168-16 16s7.136 16 16 16h135.84l107.52 92.128A15.828 15.828 0 00432 512c2.272 0 4.544-.48 6.688-1.472C444.352 507.936 448 502.24 448 496v-80c35.296 0 64-28.704 64-64V160c0-27.2-17.184-51.424-42.784-60.256zM304 96H112c-8.832 0-16 7.168-16 16s7.168 16 16 16h192c8.832 0 16-7.168 16-16s-7.168-16-16-16zM240 160H112c-8.832 0-16 7.168-16 16s7.168 16 16 16h128c8.832 0 16-7.168 16-16s-7.168-16-16-16z" fill="#fff" data-original="#000000" xmlns="http://www.w3.org/2000/svg"/></svg>