<svg width="68" height="68" fill="none" xmlns="http://www.w3.org/2000/svg"><path d="M62.563 27.462a11.794 11.794 0 00-2.335-1.161C58.973 12.933 47.69 2.437 34 2.437 20.31 2.437 9.027 12.933 7.772 26.3c-.814.299-1.597.686-2.333 1.16A11.806 11.806 0 000 37.426v3.828C0 47.785 5.314 53.1 11.846 53.1h2.671a3.768 3.768 0 003.764-3.764V29.343a3.768 3.768 0 00-3.764-3.764h-2.67c-.068 0-.134.003-.201.004C13.205 14.64 22.634 6.2 34 6.2s20.795 8.44 22.354 19.382c-.067-.001-.133-.003-.2-.003h-2.671a3.768 3.768 0 00-3.764 3.763v19.993a3.768 3.768 0 003.764 3.763h2.528c-1.588 5.037-6.302 8.7-11.856 8.7a1.882 1.882 0 000 3.764c7.879 0 14.46-5.658 15.898-13.124C64.675 50.824 68 46.42 68 41.253v-3.828c0-4.046-2.033-7.771-5.438-9.963zm-50.717 1.881h2.671l.003 19.992h-2.673c-4.457 0-8.083-3.625-8.083-8.082v-3.827a8.057 8.057 0 013.713-6.801 8.046 8.046 0 014.37-1.282zm52.39 11.91c0 4.457-3.625 8.082-8.082 8.082h-2.671V29.343h2.671c1.557 0 3.068.443 4.37 1.283a8.056 8.056 0 013.712 6.8v3.827z" fill="#fff"/></svg>